PathFileType	4	(X/Y/Z)	/Users/giacomo/dev/rowing-video-analysis/sports2d_app/runs/gb8_20260203_210816/sports2d/input_Sports2D/input_Sports2D_px_person00.trc
DataRate	CameraRate	NumFrames	NumMarkers	Units	OrigDataRate	OrigDataStartFrame	OrigNumFrames
50.0	50.0	4	133	m	50.0	319	638
Frame#	Time	RHip			RKnee			RAnkle			RBigToe			RSmallToe			RHeel			LHip			LKnee			LAnkle			LBigToe			LSmallToe			LHeel			Nose			REye			LEye			REar			LEar			RShoulder			RElbow			RWrist			RThumb1			RThumb			RThumb3			RThumb4			RIndex			RIndex2			RIndex3			RIndex4			RMiddle1			RMiddle2			RMiddle3			RMiddle4			RRing1			RRing2			RRing3			RRing4			RPinky			RPinky2			RPinky3			RPinky4			LShoulder			LElbow			LWrist			LThumb1			LThumb			LThumb3			LThumb4			LIndex			LIndex2			LIndex3			LIndex4			LMiddle1			LMiddle2			LMiddle3			LMiddle4			LRing1			LRing2			LRing3			LRing4			LPinky			LPinky2			LPinky3			LPinky4			Jaw1			Jaw2			Jaw3			Jaw4			Jaw5			Jaw6			Jaw7			Jaw8			Jaw9			Jaw10			Jaw11			Jaw12			Jaw13			Jaw14			Jaw15			Jaw16			Jaw17			EyebrowR1			EyebrowR2			EyebrowR3			EyebrowR4			EyebrowR5			EyebrowL1			EyebrowL2			EyebrowL3			EyebrowL4			EyebrowL5			Nose1			Nose2			Nose3			Nose4			Nose5			Nose6			Nose7			Nose8			Nose9			REye1			REye2			REye3			REye4			REye5			REye6			LEye1			LEye2			LEye3			LEye4			LEye5			LEye6			Mouth1			Mouth2			Mouth3			Mouth4			Mouth5			Mouth6			Mouth7			Mouth8			Mouth9			Mouth10			Mouth11			Mouth12			Mouth13			Mouth14			Mouth15			Mouth16			Mouth17			Mouth18			Mouth19			Mouth20			Hip			Neck			
		X1	Y1	Z1	X2	Y2	Z2	X3	Y3	Z3	X4	Y4	Z4	X5	Y5	Z5	X6	Y6	Z6	X7	Y7	Z7	X8	Y8	Z8	X9	Y9	Z9	X10	Y10	Z10	X11	Y11	Z11	X12	Y12	Z12	X13	Y13	Z13	X14	Y14	Z14	X15	Y15	Z15	X16	Y16	Z16	X17	Y17	Z17	X18	Y18	Z18	X19	Y19	Z19	X20	Y20	Z20	X21	Y21	Z21	X22	Y22	Z22	X23	Y23	Z23	X24	Y24	Z24	X25	Y25	Z25	X26	Y26	Z26	X27	Y27	Z27	X28	Y28	Z28	X29	Y29	Z29	X30	Y30	Z30	X31	Y31	Z31	X32	Y32	Z32	X33	Y33	Z33	X34	Y34	Z34	X35	Y35	Z35	X36	Y36	Z36	X37	Y37	Z37	X38	Y38	Z38	X39	Y39	Z39	X40	Y40	Z40	X41	Y41	Z41	X42	Y42	Z42	X43	Y43	Z43	X44	Y44	Z44	X45	Y45	Z45	X46	Y46	Z46	X47	Y47	Z47	X48	Y48	Z48	X49	Y49	Z49	X50	Y50	Z50	X51	Y51	Z51	X52	Y52	Z52	X53	Y53	Z53	X54	Y54	Z54	X55	Y55	Z55	X56	Y56	Z56	X57	Y57	Z57	X58	Y58	Z58	X59	Y59	Z59	X60	Y60	Z60	X61	Y61	Z61	X62	Y62	Z62	X63	Y63	Z63	X64	Y64	Z64	X65	Y65	Z65	X66	Y66	Z66	X67	Y67	Z67	X68	Y68	Z68	X69	Y69	Z69	X70	Y70	Z70	X71	Y71	Z71	X72	Y72	Z72	X73	Y73	Z73	X74	Y74	Z74	X75	Y75	Z75	X76	Y76	Z76	X77	Y77	Z77	X78	Y78	Z78	X79	Y79	Z79	X80	Y80	Z80	X81	Y81	Z81	X82	Y82	Z82	X83	Y83	Z83	X84	Y84	Z84	X85	Y85	Z85	X86	Y86	Z86	X87	Y87	Z87	X88	Y88	Z88	X89	Y89	Z89	X90	Y90	Z90	X91	Y91	Z91	X92	Y92	Z92	X93	Y93	Z93	X94	Y94	Z94	X95	Y95	Z95	X96	Y96	Z96	X97	Y97	Z97	X98	Y98	Z98	X99	Y99	Z99	X100	Y100	Z100	X101	Y101	Z101	X102	Y102	Z102	X103	Y103	Z103	X104	Y104	Z104	X105	Y105	Z105	X106	Y106	Z106	X107	Y107	Z107	X108	Y108	Z108	X109	Y109	Z109	X110	Y110	Z110	X111	Y111	Z111	X112	Y112	Z112	X113	Y113	Z113	X114	Y114	Z114	X115	Y115	Z115	X116	Y116	Z116	X117	Y117	Z117	X118	Y118	Z118	X119	Y119	Z119	X120	Y120	Z120	X121	Y121	Z121	X122	Y122	Z122	X123	Y123	Z123	X124	Y124	Z124	X125	Y125	Z125	X126	Y126	Z126	X127	Y127	Z127	X128	Y128	Z128	X129	Y129	Z129	X130	Y130	Z130	X131	Y131	Z131	X132	Y132	Z132	X133	Y133	Z133
319	6.390015698587127	441.7774959210431	625.8275745536131	0.0	640.907663002478	517.1963252288588	0.0	707.9875081228855	666.5445329684168	0.0	774.1030171029798	651.1255601525485	0.0	755.152459970998	663.4919791230712	0.0	707.9766139862721	682.5936004663162	0.0	463.9635386437111	612.1715447138013	0.0	653.7309134853749	501.65463430598106	0.0	704.8072552902988	647.2011004511065	0.0	783.3295869905778	640.9482595217282	0.0	769.238522936444	637.1338177181605	0.0	711.7859043382119	652.8497612436236	0.0	637.4989150297924	341.8215614130231	0.0	622.5786616892581	322.1522244293114	0.0	630.3796722665436	321.56939657319356	0.0	571.6285991921673	331.037041544415	0.0	582.0221141719445	330.4603041146347	0.0	577.1915826890948	418.1038817558827	0.0	729.9286491031769	466.1405183659233	0.0	886.2982143417229	495.57918665718023	0.0	901.929867318264	505.5839098927768	0.0	908.9599870706373	516.5673012244245	0.0	919.9529421465198	524.2292077589537	0.0	925.683936356895	529.8140393923795	0.0	924.0809408417497	504.1347753509348	0.0	933.6345881332282	516.0301505918111	0.0	934.3067187408317	525.2094075739586	0.0	932.5207303194437	532.2418386964001	0.0	928.4576911674394	504.9134561483828	0.0	937.7421139473274	517.1274189221909	0.0	935.6555827945219	523.9523915827729	0.0	931.4446677411806	531.8836795030818	0.0	931.3270164447487	505.57374096601524	0.0	938.5243506475729	515.7339807436946	0.0	937.02551275581	523.1501810404624	0.0	931.9377297424261	529.4099208535325	0.0	931.3180387186995	505.0602618850933	0.0	937.8222063732212	513.7976291946887	0.0	937.8755456661281	518.4682145236659	0.0	934.5969035231504	524.6834717520074	0.0	566.4439797193604	406.01989797103283	0.0	676.7812932245241	487.6003658329428	0.0	779.8681784003418	525.4244216283691	0.0	806.0363980723589	532.3588325171041	0.0	819.4921153774098	535.7328093972585	0.0	829.6703040884022	540.7629423075265	0.0	837.5317060713002	546.6700577357834	0.0	827.0287417078779	528.2294651008049	0.0	836.8321192763107	535.3634983370483	0.0	839.6126887992303	540.5115689860348	0.0	835.0655519709899	545.0416079581344	0.0	826.6432438710862	531.0708051797286	0.0	837.0253817601972	539.3727877002565	0.0	836.6239728119193	542.7835025512444	0.0	830.5746354267017	545.9257505387908	0.0	824.9882501158095	534.0877090741537	0.0	831.8900220985413	542.1892285869515	0.0	832.3445422491308	543.3887672425049	0.0	825.7619921542016	545.5572761107102	0.0	821.5644778921343	536.9154978170146	0.0	827.6221813605341	544.265412471038	0.0	828.6662881110143	544.8273085361286	0.0	826.2184012780755	547.681708500835	0.0	581.8292017812604	318.28599512361353	0.0	582.4721162034656	328.6901912267114	0.0	582.5293867936473	338.5080381148959	0.0	585.5960336564833	348.4816512215571	0.0	589.6168796830868	357.10118748988316	0.0	595.638550212633	362.89378406304394	0.0	604.406181983901	368.7541937064509	0.0	614.5764420791861	373.12224088823217	0.0	623.8693335448784	374.2379592030784	0.0	628.7705083785261	372.5037945459682	0.0	629.295252815201	366.377962462229	0.0	629.143557467179	360.47055903546476	0.0	628.3079008040953	353.6987171574831	0.0	628.5726219638719	344.53787886933776	0.0	628.0985046612375	334.8719604513704	0.0	626.8376851476263	324.19578096530927	0.0	626.1824851791546	315.0440089803908	0.0	612.4498479965376	311.13177140865656	0.0	617.7061514891844	307.88978472950066	0.0	623.1205557879332	306.40726380031	0.0	627.3434016067736	307.25191786358704	0.0	629.8984205415095	308.1854792464127	0.0	634.6682023340152	308.4488245736144	0.0	636.1969567245424	307.69094137325374	0.0	636.1429826690086	307.6351290986793	0.0	636.1453805631554	307.7059411594361	0.0	634.6127969287833	309.6753236137285	0.0	632.2487707844665	319.31480614411385	0.0	635.1750945695441	326.33091181185637	0.0	638.4829270727523	332.2170394081022	0.0	639.3564856088102	336.63421041620404	0.0	629.8836185470757	341.0488574283208	0.0	631.7421813550679	341.0514983564824	0.0	633.7917791494007	342.4465809553198	0.0	635.7401008849022	342.11707574834827	0.0	636.856806186149	340.57589854721044	0.0	616.7259355908832	319.51768678694305	0.0	620.7100760424747	317.0710298227948	0.0	623.5586785477274	316.5266121250917	0.0	625.0194008904926	319.4312743516332	0.0	623.0465716753364	321.41356362988927	0.0	620.0126282494156	321.3978965664506	0.0	631.3356189534593	318.0862633258517	0.0	632.582894940718	316.1203356005506	0.0	634.2005592611565	316.3608367353299	0.0	633.314231364108	317.97721881802954	0.0	633.7286466042547	318.3236301905067	0.0	632.4821453405282	318.7091951556929	0.0	623.7535712229839	352.72582382407506	0.0	629.3469929090477	351.3474646546025	0.0	633.9300749854228	349.842259989428	0.0	634.6858152825962	350.87693305496003	0.0	635.6302556255717	350.3762790057029	0.0	636.1147414763522	352.366417946963	0.0	634.4107288835149	353.2924694986174	0.0	634.6625034295204	357.18232972780504	0.0	633.8976608907091	360.6125951033993	0.0	631.5838759309712	361.436299271295	0.0	628.8167021703613	360.1632965806747	0.0	626.4831239560667	357.7175807774129	0.0	623.7164055854564	352.8095879417985	0.0	630.7312196711335	352.78152184093716	0.0	633.2346848435199	353.20788120304525	0.0	634.6591881678021	352.78048002287085	0.0	634.6809908866153	352.7863967488365	0.0	633.1538222611726	355.48896787201346	0.0	631.2057365929496	356.30903633573655	0.0	628.4498886742799	355.5210367768961	0.0	452.87104179412586	618.6660321117697	0.0	571.8023086938127	412.06188968823415	0.0
320	6.410047095761381	438.5213685309153	626.4768750921114	0.0	642.6832927710034	519.7863924083088	0.0	714.6259959659175	668.2533968921911	0.0	777.1739950876843	650.142549180371	0.0	757.7804141876503	662.7963543994962	0.0	713.5595183382161	682.842855034875	0.0	458.9927442730238	612.3624822191604	0.0	652.1535846314874	503.48777746610136	0.0	710.9815870931097	647.7858758982948	0.0	791.2132599903803	641.6579226508259	0.0	774.6391786603651	639.7046592158615	0.0	715.3890069017867	653.3701353677271	0.0	629.0919226187056	338.64001064359115	0.0	614.2934922959679	319.0858302493094	0.0	621.8077047827142	318.5862508589322	0.0	563.9881633661515	327.82617898466464	0.0	573.385834987363	327.4073546699939	0.0	572.3250039234103	416.5905505664141	0.0	723.5730446479016	462.63692966551156	0.0	881.4175809121981	488.7998355604521	0.0	896.5821502920272	498.1281784986272	0.0	904.2611592489612	508.1503251650517	0.0	916.0669539827899	514.906241876116	0.0	921.715645131129	520.4129935911325	0.0	918.754687592367	496.57188700186833	0.0	928.7205925663545	508.35701170417076	0.0	929.5377240702172	516.7339028087154	0.0	927.4314387148062	524.0574505347787	0.0	923.1665476125505	498.04066350712293	0.0	932.6175428652277	509.79927457250415	0.0	930.0824534857334	516.7380312803696	0.0	926.0372624945617	524.4344743118687	0.0	925.6598499396307	498.9271532863582	0.0	932.8718173087992	509.15299386480535	0.0	930.579496150527	516.5182193080569	0.0	925.684192468012	522.5553578665166	0.0	925.3382124553268	498.8617605895544	0.0	931.602777831038	507.8170591748258	0.0	931.8159207296602	512.5794519437088	0.0	928.417409050505	518.0519207356656	0.0	557.2298940967089	404.66096639860376	0.0	673.9073075454507	486.1240893784207	0.0	778.8519648069938	521.0052936927592	0.0	805.5069188909519	527.7130846033483	0.0	819.1670315715858	530.4266821347865	0.0	828.8218281494035	535.0091899989357	0.0	837.2168193737747	540.360090444797	0.0	826.0369543341586	522.8971579797152	0.0	836.738964589737	529.5359072395046	0.0	839.6939487752862	534.7400947362216	0.0	835.5258240777583	539.168861775861	0.0	826.085092871399	525.8834492614823	0.0	836.7483568999296	533.5619291647106	0.0	837.4020779645142	536.987552932764	0.0	831.1333618676657	540.0662145089494	0.0	824.7265359730499	529.2606278270706	0.0	832.3265397988323	536.3676622094723	0.0	831.8701623519179	537.4359278972589	0.0	825.9871943034015	540.0138897117931	0.0	821.462367797275	532.5774402710722	0.0	827.7666894668344	538.8962701564391	0.0	828.5058821456637	539.647844862135	0.0	826.5093130319982	542.5798192215789	0.0	573.682444497668	315.3981277437161	0.0	574.3409621845918	325.63341988866364	0.0	574.3884180393112	335.6212540056023	0.0	577.706192846071	345.4034460391908	0.0	581.607135143214	353.9230044386593	0.0	587.490878186715	360.01421374070225	0.0	596.2305882900332	365.84887828769644	0.0	606.1202260054074	370.2985159814757	0.0	615.3916174530722	371.78438830617057	0.0	620.2539615639535	370.0877211169117	0.0	621.0706407362317	363.93621660291365	0.0	621.3264776339546	357.6318912599463	0.0	620.1891338482706	350.8716489953332	0.0	620.6215013160378	341.6523903669813	0.0	619.8948800207443	331.890472490162	0.0	618.2125720697641	321.3100904839431	0.0	617.4716850831014	312.12470418550623	0.0	604.0228451031654	308.0690098478595	0.0	609.1119440960867	305.12651131939145	0.0	614.4486092711576	303.6909360054135	0.0	618.8353299403766	304.5128754847079	0.0	621.2945355701136	305.48065471515866	0.0	626.0221320526354	305.8467188756363	0.0	627.3222141071466	305.21074882721865	0.0	627.2813888474116	304.88394481186657	0.0	627.2786826358267	305.09094671199495	0.0	626.0025860433703	307.05979732348976	0.0	623.3549449579717	316.27592484941863	0.0	626.3838021364983	323.2395242152168	0.0	629.8547950870859	329.09489161992707	0.0	630.858068413348	333.8809612636976	0.0	621.2846062615921	338.12790554816513	0.0	622.9909888292487	338.129052300446	0.0	625.1652957203493	339.48581638429005	0.0	627.2155922485742	339.0914690968136	0.0	628.2837040486752	337.7464674370175	0.0	608.4507100211308	316.44120687331343	0.0	612.2404986466645	313.9395818700596	0.0	614.9132692039786	313.41774890179965	0.0	616.5014280926298	316.48849113906255	0.0	614.5226894332321	318.42571282843795	0.0	611.3932355709406	318.31674853641334	0.0	622.7278051065238	315.1258451503953	0.0	624.1475854071808	313.1262256506137	0.0	625.3206653205115	313.2498201031508	0.0	624.6726739912065	315.1003387156489	0.0	624.9262222470576	315.20275489187253	0.0	623.9005284482829	315.6679562140666	0.0	615.6745362074477	349.7666849314972	0.0	620.840176152743	348.34965443976284	0.0	625.5887903403412	347.07748461737134	0.0	626.2148177814308	347.8875807592073	0.0	627.116477546725	347.6261217140289	0.0	627.575734067633	349.59795718156016	0.0	626.038362722848	350.4910283383596	0.0	626.237870207077	354.35816080289703	0.0	625.6780922839587	357.5405171299296	0.0	623.4843425108837	358.7544413808026	0.0	620.3502088855507	357.2756614717173	0.0	618.3234496077898	354.8966401274713	0.0	615.6557629184601	349.7967346172516	0.0	622.2861328926674	349.77353801754896	0.0	624.7095430770554	350.2683109722225	0.0	626.1050037587183	349.7945182813754	0.0	626.1503410972022	349.9868875991419	0.0	624.6641220650513	352.5168961451021	0.0	622.7104082847172	353.5174389092574	0.0	620.2550052287922	352.5605030175414	0.0	448.7573865445076	618.5340368175076	0.0	564.7611816189268	410.6257592391042	0.0
321	6.430078492935635	437.0994932187121	627.5007408283053	0.0	645.1162394523736	522.833656020969	0.0	720.207792281668	671.28134538221	0.0	777.1920689274966	650.0103219361238	0.0	759.1625531664739	662.9159821960709	0.0	718.0144697525093	685.2443055220365	0.0	455.82176145164124	612.6744554601798	0.0	650.7060782543773	506.0431074664388	0.0	716.3432297617738	649.2896550667657	0.0	791.7672174165036	643.0399358639135	0.0	775.2723617121652	641.9266346095962	0.0	716.3580315756562	654.7231328068534	0.0	620.4986624723444	335.1435019694188	0.0	605.7672066069276	315.7377832211276	0.0	613.0026735449637	315.2792568977045	0.0	555.916479579282	324.56237886405296	0.0	564.0523058284867	324.29314481312855	0.0	567.3698452485048	414.9840355513815	0.0	716.9012315895809	459.531737111017	0.0	875.5981133631313	482.69944222768703	0.0	890.4609608357104	491.6223921170403	0.0	898.5966551716679	500.88017964550306	0.0	911.1125494124668	506.4557610231602	0.0	917.1293826049915	511.72587158122803	0.0	912.6283367276247	489.8315856569267	0.0	923.2452265262865	501.1870480302856	0.0	924.4403694268551	508.5966094581986	0.0	922.3207572840481	516.0443934064369	0.0	917.2004546158975	491.57561794747284	0.0	927.046238022533	502.6894421416702	0.0	924.3158031482092	509.7978643398309	0.0	920.5766261999813	517.0758032823832	0.0	919.2236032049564	492.5657506494659	0.0	926.9241519816367	502.6218654785881	0.0	924.107195393427	510.11118803228374	0.0	919.5857848438193	515.9727987515768	0.0	918.6555480482843	492.94869955615655	0.0	925.0976088436431	501.6530847412591	0.0	925.3946785797149	506.77608332740806	0.0	922.2892138339565	511.44373028022903	0.0	549.4433611222792	403.6080717507313	0.0	670.682839865544	485.23181178856953	0.0	777.6111016461535	517.2852009292442	0.0	804.4632006643053	523.5440739808049	0.0	818.0539781746502	525.6927427007355	0.0	827.5236353095615	529.7175210000697	0.0	836.3369429894794	534.495559567057	0.0	824.7376016426828	517.9884554694262	0.0	836.7736045991483	524.0511854958916	0.0	839.6740723927753	529.1817619619868	0.0	835.8408695721703	533.4988306874695	0.0	825.1886256816862	521.2524540156176	0.0	836.248661105209	528.1802763214467	0.0	837.8021038424442	531.3049599099422	0.0	832.1123287985306	534.316858350921	0.0	824.0212943799027	524.9402986318526	0.0	832.4298352962182	531.0428901955197	0.0	831.4567875128747	531.8799599342577	0.0	826.5652510365	534.7688281335776	0.0	821.1575882614522	528.8844193747211	0.0	827.7849548306547	534.1006793310579	0.0	828.3086048018015	534.8155765637496	0.0	826.8392583633863	537.7189980231667	0.0	565.157704343676	312.3192501615157	0.0	565.8128195474611	322.3403598345619	0.0	565.9917171506107	332.54001842221624	0.0	569.4278017632591	342.1777930490556	0.0	573.2558596055113	350.43165587783534	0.0	579.124079360333	356.9351174050368	0.0	587.9868547347638	362.7673005859738	0.0	597.5900436050695	367.45065500240173	0.0	606.6927400254473	369.18782886478516	0.0	611.5015251003599	367.59370609428004	0.0	612.5311717296191	361.4337974557376	0.0	613.1829290245289	354.8086578425706	0.0	611.9213998621303	347.72925032254545	0.0	612.4302821905727	338.5445993943636	0.0	611.4433950621194	328.6213629114877	0.0	609.5042223928446	318.32390778983176	0.0	608.5376731122344	309.0757652524803	0.0	595.4166201880132	304.74927401621187	0.0	600.352295920123	301.9761615484202	0.0	605.5451938960167	300.58265707112076	0.0	610.0570919669631	301.44976614987536	0.0	612.5412435628806	302.54275543273036	0.0	616.9510483647357	302.9957766528599	0.0	618.1107452555922	302.4324907303715	0.0	618.1152899024672	301.71021246332236	0.0	618.1033252152388	302.1748557305357	0.0	617.0266878157329	304.14053611850727	0.0	614.1751009510332	313.16050650172497	0.0	617.3673225323463	319.90964735918516	0.0	620.9894340492696	325.7258122360594	0.0	622.1264361356123	330.82655171870226	0.0	612.5075951778914	335.1076779690857	0.0	614.044993491061	335.105388911468	0.0	616.3679147074527	336.21269296466676	0.0	618.624437248838	335.84593071885865	0.0	619.5222408170312	334.6575476954466	0.0	599.9246603358648	313.0947151090081	0.0	603.5080485764214	310.5741213486115	0.0	606.1012843205041	310.07358571633426	0.0	607.8674388036586	313.2757470928349	0.0	605.8844710480442	315.1150371312025	0.0	602.6724577511575	314.85418356719504	0.0	613.8502073950096	311.9404269527351	0.0	615.4471994942714	309.95653764697244	0.0	616.1482076465903	310.07168950211195	0.0	615.7779653675349	312.03078371327973	0.0	615.8829886406934	312.01076604740956	0.0	615.0394345358095	312.4110340726488	0.0	607.205064526131	346.6613781417714	0.0	612.0723949339211	345.3141795883956	0.0	616.9772948199092	344.1568363738586	0.0	617.5789112051102	344.7713724616716	0.0	618.4242083132709	344.6885863422246	0.0	618.7745288411	346.63765141761417	0.0	617.3129231081078	347.5283427031308	0.0	617.6102108240987	351.39543419971506	0.0	617.326246891242	354.21089032516556	0.0	615.1614134115633	355.7940147142962	0.0	611.758557452497	354.1804652018479	0.0	609.9349425392448	351.90518732017534	0.0	607.2600872876079	346.7396389485691	0.0	613.5226003794181	346.75289999318306	0.0	615.9179847860693	347.1468776363741	0.0	617.2920239919536	346.74711324908344	0.0	617.3289686211822	347.12039461921654	0.0	615.9698543355448	349.4716770561638	0.0	614.0140161467705	350.51521537429875	0.0	611.7750358885822	349.5146690056993	0.0	446.4607693145342	618.6127618790376	0.0	558.396001262547	409.2960562929851	0.0
322	6.450109890109889	437.2242259196255	627.8134821526733	0.0	647.7719008574358	526.444373356824	0.0	725.1746107554399	675.5991522836478	0.0	776.829919517158	650.984198567323	0.0	760.9130039756192	664.1020891731498	0.0	721.7849236605637	690.4331983700005	0.0	455.17013730394297	612.4398606135959	0.0	649.459654905194	509.75030089350537	0.0	720.8298472890789	651.2605808903676	0.0	785.9406098813535	645.0478438862873	0.0	772.259019118487	643.1403820203138	0.0	715.6955823149502	657.3870333178329	0.0	611.501690498341	331.22121816312386	0.0	596.774896898046	311.9999177742397	0.0	603.8157391927955	311.6157215271847	0.0	547.0744217153936	321.0172681349587	0.0	554.1317307410857	320.99783093281235	0.0	561.3192288628632	412.94095143924596	0.0	709.0735973756914	456.49914890328114	0.0	868.5946004132724	477.29390377474766	0.0	883.3991240064357	486.0008036380203	0.0	891.6575808006565	494.6685549070972	0.0	904.6665118975098	499.0897063427936	0.0	911.3407152773505	504.0515706512259	0.0	905.3820289586251	483.94019447546833	0.0	916.7210469211933	494.5690062797653	0.0	918.4287092431116	501.1434563027165	0.0	916.5123086258865	508.6091692063096	0.0	910.1787560441132	485.5954043357488	0.0	920.4214917804065	495.97354733539186	0.0	917.7932611255789	503.2359483708124	0.0	914.4506810599775	510.11650534203466	0.0	911.7090271800187	486.6546672009817	0.0	920.1300457355966	496.2733003204383	0.0	917.2767572035328	503.9807589845276	0.0	913.0925114751568	509.75432680789055	0.0	910.9486479983551	487.35637763859177	0.0	917.8564946013986	495.420578079096	0.0	918.1865520440418	501.03450153524375	0.0	915.8197092314939	505.0926772225681	0.0	544.9226600826313	402.6437856936235	0.0	666.9588119220934	484.0163093237307	0.0	775.7331864292752	513.9991058260932	0.0	802.5390837545078	519.5698557179093	0.0	815.9522499398382	521.3752821146857	0.0	825.5308213074286	524.9372249785474	0.0	834.425920085898	529.2151895070036	0.0	822.7749648944905	513.5319139993768	0.0	836.2524550220152	519.0767979528412	0.0	839.0452893834064	523.9681233830868	0.0	835.3297509785062	528.2346000342412	0.0	823.4792528400883	517.2848047158709	0.0	834.8276839282461	523.3626100011048	0.0	837.1293248053362	525.9075128615126	0.0	832.9539269815903	528.8183381221185	0.0	822.3124561421567	521.1270375206171	0.0	831.3628366531284	526.3501462310177	0.0	830.368072183279	526.9176653864704	0.0	826.8510612396421	529.7882018988693	0.0	819.8046080049268	525.5896299448647	0.0	826.818693761818	529.8994791058683	0.0	827.2326625102675	530.2710638548793	0.0	826.3658220947513	533.0928227534224	0.0	556.1300748476183	308.8647058099528	0.0	556.784112789529	318.65899190472413	0.0	557.1893184434748	329.0581301607534	0.0	560.6011931984508	338.5469720806812	0.0	564.3898645868152	346.47741920568717	0.0	570.3104792525525	353.37498890183366	0.0	579.3879419425359	359.24529884947515	0.0	588.8157031896814	364.22310499335947	0.0	597.6206235658261	366.0251590145629	0.0	602.3811044367689	364.6209533800362	0.0	603.5273746930866	358.44992051941387	0.0	604.4679686764717	351.6708515982595	0.0	603.3819210930983	344.1554971352789	0.0	603.8142981648504	334.99881479619467	0.0	602.6231771508527	325.01515162828457	0.0	600.5944238134715	314.98446211003784	0.0	599.4433278632857	305.79394410636473	0.0	586.3989775329695	301.04532807643693	0.0	591.3400133477276	298.23186331737986	0.0	596.2196838782859	296.9565655591324	0.0	600.8507352217285	297.84910895561364	0.0	603.425185923995	299.20941190068936	0.0	607.375837932028	299.6928702629043	0.0	608.5154507993277	299.16995540539557	0.0	608.6131694639621	298.0743917183916	0.0	608.5921244995304	298.83062497068073	0.0	607.6284135467814	300.7795721393861	0.0	604.7134149172351	309.7807428136303	0.0	608.096399271132	316.18117174809066	0.0	611.7843833074638	321.9464360528515	0.0	613.0129386262727	327.1902023904633	0.0	603.3965800242615	331.7437021115018	0.0	604.8456453836902	331.73512199738525	0.0	607.2588767925471	332.4635800308981	0.0	609.7953313570009	332.12954229036	0.0	610.4080828496076	331.0220935407892	0.0	590.9306477454008	309.3156078937235	0.0	594.3157144604019	306.8155736585627	0.0	597.039262181671	306.4212680411208	0.0	598.9407948299628	309.6453340853911	0.0	596.971719811217	311.3280482093233	0.0	593.6750920702983	310.90572617261046	0.0	604.543015148048	308.4399933106353	0.0	606.2912201888165	306.4909608936197	0.0	606.6768266412076	306.70655943517613	0.0	606.4311648482831	308.68548178065583	0.0	606.4463313077737	308.6277785361744	0.0	605.8029564262047	308.8748432351913	0.0	598.1185974448694	343.1771739534352	0.0	602.9615394460084	341.9589766710952	0.0	607.9224839961719	340.742507940336	0.0	608.5881124733661	341.27399044641913	0.0	609.4363934041215	341.283724681145	0.0	609.6230857983495	343.209254000551	0.0	608.097228640736	344.1026041989346	0.0	608.6091644007196	348.0227101216087	0.0	608.6547477465629	350.44127784351645	0.0	606.3571856582315	352.2005258026809	0.0	602.9398111974704	350.6686642554491	0.0	601.1741203333914	348.4091762995243	0.0	598.3285983727762	343.38882999918854	0.0	604.2805455281632	343.491684821655	0.0	606.7838743313249	343.65265357750843	0.0	608.0535544293585	343.39720877531283	0.0	608.0740587957345	343.8595517166586	0.0	607.0045978016675	346.0770909523709	0.0	605.0563346136279	347.03739767272276	0.0	602.86082561502	346.1061974705145	0.0	446.19720631399014	618.3837888240678	0.0	553.1161846912875	407.7923738555744	0.0
